<svg width="131" height="33" viewBox="0 0 131 33" fill="none" xmlns="http://www.w3.org/2000/svg">
<path d="M12.474 8.556V11.57H8.382V24H4.62V11.57H0.528V8.556H12.474ZM23.976 21.272H18.212L17.288 24H13.35L18.938 8.556H23.294L28.882 24H24.9L23.976 21.272ZM23.008 18.368L21.094 12.714L19.202 18.368H23.008ZM32.4748 10.448C31.8148 10.448 31.2721 10.2573 30.8468 9.876C30.4361 9.48 30.2308 8.996 30.2308 8.424C30.2308 7.83733 30.4361 7.35333 30.8468 6.972C31.2721 6.576 31.8148 6.378 32.4748 6.378C33.1201 6.378 33.6481 6.576 34.0588 6.972C34.4841 7.35333 34.6968 7.83733 34.6968 8.424C34.6968 8.996 34.4841 9.48 34.0588 9.876C33.6481 10.2573 33.1201 10.448 32.4748 10.448ZM34.3448 11.724V24H30.5828V11.724H34.3448ZM58.323 8.556L54.297 24H49.743L47.279 13.836L44.727 24H40.173L36.257 8.556H40.283L42.505 19.798L45.255 8.556H49.391L52.031 19.798L54.275 8.556H58.323ZM69.8237 21.272H64.0597L63.1357 24H59.1977L64.7857 8.556H69.1417L74.7297 24H70.7477L69.8237 21.272ZM68.8557 18.368L66.9417 12.714L65.0497 18.368H68.8557ZM90.2464 24H86.4844L80.1924 14.474V24H76.4304V8.556H80.1924L86.4844 18.126V8.556H90.2464V24Z" fill="black"/>
<path d="M107.887 13.44C107.609 12.9267 107.205 12.538 106.677 12.274C106.164 11.9953 105.555 11.856 104.851 11.856C103.634 11.856 102.659 12.2593 101.925 13.066C101.192 13.858 100.825 14.9213 100.825 16.256C100.825 17.6787 101.207 18.7933 101.969 19.6C102.747 20.392 103.81 20.788 105.159 20.788C106.083 20.788 106.861 20.5533 107.491 20.084C108.137 19.6147 108.606 18.94 108.899 18.06H104.125V15.288H112.309V18.786C112.031 19.7247 111.554 20.5973 110.879 21.404C110.219 22.2107 109.376 22.8633 108.349 23.362C107.323 23.8607 106.164 24.11 104.873 24.11C103.348 24.11 101.984 23.78 100.781 23.12C99.5935 22.4453 98.6622 21.514 97.9875 20.326C97.3275 19.138 96.9975 17.7813 96.9975 16.256C96.9975 14.7307 97.3275 13.374 97.9875 12.186C98.6622 10.9833 99.5935 10.052 100.781 9.392C101.969 8.71733 103.326 8.38 104.851 8.38C106.699 8.38 108.254 8.82733 109.515 9.722C110.791 10.6167 111.635 11.856 112.045 13.44H107.887ZM121.697 24.154C120.245 24.154 118.911 23.8167 117.693 23.142C116.491 22.4673 115.53 21.5287 114.811 20.326C114.107 19.1087 113.755 17.7447 113.755 16.234C113.755 14.7233 114.107 13.3667 114.811 12.164C115.53 10.9613 116.491 10.0227 117.693 9.348C118.911 8.67333 120.245 8.336 121.697 8.336C123.149 8.336 124.477 8.67333 125.679 9.348C126.897 10.0227 127.85 10.9613 128.539 12.164C129.243 13.3667 129.595 14.7233 129.595 16.234C129.595 17.7447 129.243 19.1087 128.539 20.326C127.835 21.5287 126.882 22.4673 125.679 23.142C124.477 23.8167 123.149 24.154 121.697 24.154ZM121.697 20.722C122.929 20.722 123.912 20.3113 124.645 19.49C125.393 18.6687 125.767 17.5833 125.767 16.234C125.767 14.87 125.393 13.7847 124.645 12.978C123.912 12.1567 122.929 11.746 121.697 11.746C120.451 11.746 119.453 12.1493 118.705 12.956C117.972 13.7627 117.605 14.8553 117.605 16.234C117.605 17.598 117.972 18.6907 118.705 19.512C119.453 20.3187 120.451 20.722 121.697 20.722Z" fill="#00D19F"/>
<circle cx="32.5" cy="8.5" r="2.5" fill="#00D19F"/>
</svg>
